<?xml version="1.0" encoding="UTF-8" standalone="no"?>
<svg width="142px" height="61px" viewBox="0 0 142 61" version="1.1" xmlns="http://www.w3.org/2000/svg" xmlns:xlink="http://www.w3.org/1999/xlink" xmlns:sketch="http://www.bohemiancoding.com/sketch/ns">
    <!-- Generator: Sketch 3.5.1 (25234) - http://www.bohemiancoding.com/sketch -->
    <title>logo</title>
    <desc>Created with Sketch.</desc>
    <defs></defs>
    <g id="Page-1" stroke="none" stroke-width="1" fill="none" fill-rule="evenodd" sketch:type="MSPage">
        <g id="Desktop-HD" sketch:type="MSArtboardGroup" transform="translate(-29.000000, -25.000000)" fill="#2D2D2D">
            <g id="logo" sketch:type="MSLayerGroup" transform="translate(29.000000, 25.000000)">
                <g id="Layer_1" sketch:type="MSShapeGroup">
                    <g id="g3" transform="translate(0.242721, 0.135664)">
                        <g id="g5" transform="translate(84.413022, 0.000000)">
                            <path d="M55.178608,19.1557168 L46.0630804,19.7526372 C45.9552043,23.361292 45.7664212,29.710354 45.7664212,36.8462655 C45.7664212,44.6604956 45.7664212,50.5211681 46.1439874,53.9398938 C46.3327705,56.0019823 47.114872,56.7616991 48.5711989,56.7616991 C52.3468612,56.7616991 54.7740727,51.8778053 55.178608,48.4590796 L55.6640503,48.4590796 L56.5270588,50.5211681 C54.8819488,56.0019823 50.2163089,59.6106372 43.4201167,59.6106372 C39.9141446,59.6106372 36.9205837,58.6338584 35.3563808,56.8702301 C34.1967131,55.4050619 33.7921778,53.8313628 33.7112708,51.1180885 C33.6033947,43.9007788 34.00793,28.543646 34.088837,19.6712389 L28.9377548,19.0743186 L29.4231971,17.6091504 L34.1697441,17.6091504 C34.2776201,12.5353274 34.1697441,10.7716991 34.1697441,8.81814159 C34.1697441,7.35297345 33.8730849,6.67465487 33.3876426,6.18626549 C32.524634,5.3180177 29.8007634,4.61256637 28.0477773,4.61256637 C20.9549259,4.61256637 19.417692,6.7560531 19.417692,11.7484779 C19.417692,13.7020354 19.7952582,15.3571327 20.9818949,16.9308319 C22.3303458,17.229292 23.7057656,17.7990796 24.272115,18.0975398 C24.0833318,21.8961239 23.9754558,26.9970796 24.0833318,29.2219646 L23.0045712,29.601823 C22.8157881,24.0396106 19.6064751,17.5820177 13.5923844,17.5820177 C9.70884598,17.5820177 7.4704176,19.9154336 7.4704176,23.4426903 C7.4704176,25.586177 8.25251908,27.0513451 9.8976291,28.2180531 C12.7024068,30.2801416 19.7952582,33.7802655 22.4112528,35.4353628 C25.998132,37.8773097 27.3735519,41.1061062 27.3735519,45.0132212 C27.3735519,54.6724779 20.5773597,59.5563717 11.353956,59.5563717 C7.36254154,59.5563717 2.80477773,58.4710619 0.188783116,57.2229558 C0.188783116,55.079469 0.377566233,48.9203363 0.188783116,43.7379823 L1.26754378,43.5480531 C1.4563269,45.6101416 1.9417692,48.2420177 3.31718904,51.2537522 C5.15108217,55.6492566 8.7649304,57.9012743 12.6484688,57.9826726 C17.1253256,58.0912035 19.3367849,55.5407257 19.3367849,51.9320708 C19.3367849,49.4901239 17.9883341,47.8350265 16.0465649,46.4512566 C13.3226942,44.7961593 9.43915581,42.5441416 7.11982039,41.2689027 C2.07661428,38.2300354 0.323628199,34.6213805 0.323628199,29.8460177 C0.323628199,21.7333274 6.25681185,16.0625841 14.590238,16.0625841 C16.7207903,16.0625841 17.6916749,16.2525133 18.9592187,16.5509735 C17.6916749,15.1943363 17.0174495,13.322177 17.0174495,11.4771504 C17.0174495,8.16695575 19.7413202,2.08922124 30.1243916,2.08922124 C30.7177099,2.08922124 34.6821554,2.27915044 35.4642568,2.68614159 C38.1881275,2.08922124 44.7955366,0.732584071 46.4406466,0.135663717 L46.6294297,0.434123894 C46.5215537,2.8760708 46.0361114,13.1322478 46.0361114,17.5277522 L55.2864841,17.5277522 L55.178608,19.1557168 L55.178608,19.1557168 Z" id="path7"></path>
                        </g>
                        <g id="g9" transform="translate(45.847328, 16.279646)">
                            <path d="M37.8375303,15.8726549 C37.8375303,16.7680354 37.271181,17.229292 36.1115132,17.229292 L9.95156713,17.229292 C9.76278401,18.9657876 9.65490795,20.7565487 9.65490795,22.6015752 C9.65490795,27.7567965 10.8685137,31.718177 13.2957252,34.4857168 C15.7229367,37.2532566 19.2019398,38.6370265 23.6787966,38.6370265 C25.944194,38.6370265 28.2095914,38.0401062 30.5019578,36.8191327 C32.7943242,35.5981593 34.6282173,34.0515929 36.0306062,32.1523009 L36.2733273,32.0437699 C36.5699865,32.0437699 36.8396767,32.2336991 37.1093669,32.559292 C37.379057,32.9120177 37.5139021,33.3190088 37.5139021,33.8073982 C37.5139021,34.4857168 36.4890795,35.8694867 34.4664032,38.0129735 C32.416758,40.1293274 30.2322676,41.757292 27.8320251,42.8968673 C25.4317827,44.0364425 22.9506331,44.5790973 20.3346385,44.5790973 C14.617207,44.5790973 9.78975303,42.4627434 5.87924562,38.2300354 C1.96873821,33.9973274 -2.38742359e-14,28.8149735 -2.38742359e-14,22.6829735 C-2.38742359e-14,16.4153097 1.91480018,11.097292 5.74440054,6.72892035 C9.5740009,2.38768142 14.4284239,0.189929204 20.3346385,0.189929204 C25.2699686,0.189929204 29.4231971,1.81789381 32.7673552,5.07382301 C36.1384823,8.35688496 37.8375303,11.9384071 37.8375303,15.8726549 L37.8375303,15.8726549 Z M29.1265379,11.6670796 C29.1265379,9.27939823 28.3174674,7.27157522 26.6723574,5.69787611 C25.0272474,4.12417699 22.9236641,3.31019469 20.3616075,3.31019469 C17.907427,3.31019469 15.7768747,4.34123894 13.9969196,6.40332743 C12.1899955,8.46541593 10.9763898,11.1786903 10.3561024,14.5431504 L23.6248586,14.163292 C25.6205658,14.1361593 27.0499237,13.9462301 27.8859632,13.5935044 C28.7220027,13.213646 29.1265379,12.5895929 29.1265379,11.6670796 L29.1265379,11.6670796 Z" id="path11"></path>
                        </g>
                        <g id="g13" transform="translate(0.000000, 14.923009)">
                            <path d="M0.0269690166,1.11244248 L15.8577818,1.11244248 L15.8577818,8.3840177 C18.2310552,5.42654867 20.6043287,3.28306195 23.0315402,2.03495575 C25.4587517,0.759716814 28.3983745,0.135663717 31.8773776,0.135663717 C36.5699865,0.135663717 40.2647418,1.54656637 42.9077054,4.36837168 C45.5776381,7.19017699 46.8991199,11.5314159 46.8991199,17.4192212 L46.8991199,45.7729381 L29.8277324,45.7729381 L29.8277324,21.2449381 C29.8277324,18.4502655 29.3153211,16.4695752 28.2904984,15.3028673 C27.2656758,14.1361593 25.8093489,13.5663717 23.9484868,13.5663717 C21.8988415,13.5663717 20.2267625,14.3532212 18.9322497,15.9269204 C17.6647059,17.5006195 17.0174495,20.295292 17.0174495,24.3652035 L17.0174495,45.7729381 L0.0269690166,45.7729381 L0.0269690166,1.11244248 L0.0269690166,1.11244248 Z" id="path15"></path>
                        </g>
                    </g>
                </g>
            </g>
        </g>
    </g>
</svg>