<?xml version="1.0" encoding="UTF-8" standalone="no"?>
<svg width="172px" height="31px" viewBox="0 0 172 31" version="1.1" xmlns="http://www.w3.org/2000/svg" xmlns:xlink="http://www.w3.org/1999/xlink" xmlns:sketch="http://www.bohemiancoding.com/sketch/ns">
    <!-- Generator: Sketch 3.5.1 (25234) - http://www.bohemiancoding.com/sketch -->
    <title>UoPlandscapeBLK</title>
    <desc>Created with Sketch.</desc>
    <defs></defs>
    <g id="Page-1" stroke="none" stroke-width="1" fill="none" fill-rule="evenodd" sketch:type="MSPage">
        <g id="Desktop-HD" sketch:type="MSArtboardGroup" transform="translate(-29.000000, -1186.000000)" fill="#FFFFFF">
            <g id="UoPlandscapeBLK" sketch:type="MSLayerGroup" transform="translate(29.000000, 1186.000000)">
                <path d="M41.7626847,20.660725 C47.3131712,20.660725 51.8130631,16.159525 51.8130631,10.6082 C51.8130631,5.0561 47.3131712,0.555675 41.7626847,0.555675 C36.212973,0.555675 31.7146306,5.0561 31.7146306,10.6082 C31.7146306,16.159525 36.212973,20.660725 41.7626847,20.660725" id="Fill-1" sketch:type="MSShapeGroup"></path>
                <path id="Fill-2" sketch:type="MSShapeGroup"></path>
                <path d="M19.1129189,20.660725 C24.6634054,20.660725 29.1625225,16.159525 29.1625225,10.6082 C29.1625225,5.0561 24.6634054,0.555675 19.1129189,0.555675 L19.1129189,20.660725" id="Fill-3" sketch:type="MSShapeGroup"></path>
                <path id="Fill-4" sketch:type="MSShapeGroup"></path>
                <path d="M19.1129189,30.58615 C16.3725405,30.58615 14.1512613,28.364225 14.1512613,25.62305 C14.1512613,22.88265 16.3725405,20.660725 19.1129189,20.660725 L19.1129189,30.58615" id="Fill-5" sketch:type="MSShapeGroup"></path>
                <path id="Fill-6" sketch:type="MSShapeGroup"></path>
                <path d="M5.34517117,30.58615 C2.60479279,30.58615 0.383513514,28.364225 0.383513514,25.62305 C0.383513514,22.88265 2.60479279,20.660725 5.34517117,20.660725 C8.08477477,20.660725 10.3076036,22.88265 10.3076036,25.62305 C10.3076036,28.364225 8.08477477,30.58615 5.34517117,30.58615" id="Fill-7" sketch:type="MSShapeGroup"></path>
                <path id="Fill-8" sketch:type="MSShapeGroup"></path>
                <path d="M62.6211712,0.495225 L62.6211712,8.456025 C62.6211712,10.055625 62.9558739,13.385025 66.7863604,13.385025 C70.0404144,13.385025 71.1374955,11.469225 71.1374955,8.456025 L71.1374955,0.495225 L71.9556577,0.495225 L71.9556577,8.456025 C71.9556577,11.618025 70.7656036,14.091825 66.7863604,14.091825 C62.0633333,14.091825 61.803009,10.223025 61.803009,8.456025 L61.803009,0.495225 L62.6211712,0.495225" id="Fill-9" sketch:type="MSShapeGroup"></path>
                <path d="M75.6373874,4.215225 L76.343982,4.215225 L76.343982,6.261225 L76.3811712,6.261225 C76.8646306,4.829025 78.315009,3.992025 79.8025766,3.992025 C83.1681982,3.992025 83.2053874,6.689025 83.2053874,7.860825 L83.2053874,13.775625 L82.4987928,13.775625 L82.4987928,7.730625 C82.4987928,6.744825 82.3872252,4.605825 79.783982,4.605825 C77.6456036,4.605825 76.343982,6.261225 76.343982,8.604825 L76.343982,13.775625 L75.6373874,13.775625 L75.6373874,4.215225" id="Fill-10" sketch:type="MSShapeGroup"></path>
                <path d="M87.1435676,4.215225 L87.8501622,4.215225 L87.8501622,13.775625 L87.1435676,13.775625 L87.1435676,4.215225 Z M87.1435676,0.495225 L87.8501622,0.495225 L87.8501622,2.411025 L87.1435676,2.411025 L87.1435676,0.495225 Z" id="Fill-11" sketch:type="MSShapeGroup"></path>
                <path d="M95.5429009,13.775625 L94.668955,13.775625 L90.8198739,4.215225 L91.638036,4.215225 L95.0966306,12.957225 L95.1338198,12.957225 L98.3692793,4.215225 L99.1502523,4.215225 L95.5429009,13.775625" id="Fill-12" sketch:type="MSShapeGroup"></path>
                <path d="M102.340775,8.474625 C102.489532,6.577425 103.735369,4.605825 105.855153,4.605825 C108.049315,4.605825 109.313748,6.465825 109.350937,8.474625 L102.340775,8.474625 L102.340775,8.474625 Z M110.057532,9.088425 C110.187694,6.354225 108.848883,3.992025 105.855153,3.992025 C102.972991,3.992025 101.596991,6.540225 101.63418,9.162825 C101.596991,11.804025 103.065964,13.998825 105.855153,13.998825 C108.123694,13.998825 109.611261,12.771225 109.983153,10.539225 L109.276559,10.539225 C108.941856,12.306225 107.658829,13.385025 105.855153,13.385025 C103.49364,13.385025 102.303586,11.339025 102.340775,9.088425 L110.057532,9.088425 L110.057532,9.088425 Z" id="Fill-13" sketch:type="MSShapeGroup"></path>
                <path d="M114.545802,6.335625 L114.60236,6.335625 C114.974252,5.089425 116.535423,4.085025 118.265495,4.159425 L118.265495,4.866225 C117.520937,4.773225 116.47964,4.959225 115.624288,5.796225 C114.917694,6.521625 114.62018,7.116825 114.545802,8.549025 L114.545802,13.775625 L113.839207,13.775625 L113.839207,4.215225 L114.545802,4.215225 L114.545802,6.335625" id="Fill-14" sketch:type="MSShapeGroup"></path>
                <path d="M121.360721,10.595025 C121.472288,12.362025 122.792505,13.385025 124.521802,13.385025 C125.76764,13.385025 127.552721,13.013025 127.552721,11.357625 C127.552721,9.739425 125.917171,9.497625 124.280072,9.162825 C122.625928,8.828025 120.988829,8.400225 120.988829,6.447225 C120.988829,4.550025 122.829694,3.992025 124.448198,3.992025 C126.474234,3.992025 127.981171,4.866225 127.981171,7.042425 L127.274577,7.042425 C127.255982,5.312625 126.047333,4.605825 124.448198,4.605825 C123.145802,4.605825 121.695423,5.089425 121.695423,6.447225 C121.695423,7.972425 123.331748,8.214225 124.875099,8.549025 C126.772523,8.902425 128.259315,9.348825 128.259315,11.357625 C128.259315,13.422225 126.195315,13.998825 124.521802,13.998825 C122.346234,13.998825 120.70991,12.827025 120.654901,10.595025 L121.360721,10.595025" id="Fill-15" sketch:type="MSShapeGroup"></path>
                <path d="M132.374144,4.215225 L133.080739,4.215225 L133.080739,13.775625 L132.374144,13.775625 L132.374144,4.215225 Z M132.374144,0.495225 L133.080739,0.495225 L133.080739,2.411025 L132.374144,2.411025 L132.374144,0.495225 Z" id="Fill-16" sketch:type="MSShapeGroup"></path>
                <path d="M140.752559,4.829025 L138.669964,4.829025 L138.669964,11.506425 C138.669964,13.050225 139.395928,13.199025 140.734739,13.161825 L140.734739,13.775625 C139.283586,13.868625 137.889766,13.664025 137.964144,11.506425 L137.964144,4.829025 L136.197658,4.829025 L136.197658,4.215225 L137.964144,4.215225 L137.964144,1.239225 L138.669964,1.239225 L138.669964,4.215225 L140.752559,4.215225 L140.752559,4.829025" id="Fill-17" sketch:type="MSShapeGroup"></path>
                <path d="M142.590324,4.215225 L143.427081,4.215225 L146.978649,12.938625 L150.251297,4.215225 L151.050865,4.215225 L146.960054,14.798625 C146.569568,15.728625 146.253459,16.454025 145.844378,16.770225 C145.34155,17.160825 144.690739,17.198025 143.612252,17.198025 L143.612252,16.584225 C144.617135,16.584225 145.119189,16.454025 145.602649,15.970425 C145.881568,15.691425 146.141892,14.984625 146.588162,13.719825 L142.590324,4.215225" id="Fill-18" sketch:type="MSShapeGroup"></path>
                <path d="M156.416955,8.995425 C156.416955,6.707625 157.699982,4.605825 160.098685,4.605825 C162.496613,4.605825 163.780414,6.707625 163.780414,8.995425 C163.780414,11.283225 162.496613,13.385025 160.098685,13.385025 C157.699982,13.385025 156.416955,11.283225 156.416955,8.995425 L156.416955,8.995425 Z M155.71036,8.995425 C155.71036,11.711025 157.290901,13.998825 160.098685,13.998825 C162.906468,13.998825 164.487009,11.711025 164.487009,8.995425 C164.487009,6.279825 162.906468,3.992025 160.098685,3.992025 C157.290901,3.992025 155.71036,6.279825 155.71036,8.995425 L155.71036,8.995425 Z" id="Fill-19" sketch:type="MSShapeGroup"></path>
                <path d="M167.008126,4.829025 L167.008126,4.215225 L168.718829,4.215225 L168.718829,2.243625 C168.718829,0.904425 169.666378,0.346425 170.820018,0.346425 C171.098937,0.346425 171.377081,0.383625 171.656775,0.439425 L171.656775,1.053225 C171.377081,0.997425 171.098937,0.960225 170.820018,0.960225 C170.039045,0.960225 169.425423,1.239225 169.425423,2.299425 L169.425423,4.215225 L171.41427,4.215225 L171.41427,4.829025 L169.425423,4.829025 L169.425423,13.775625 L168.718829,13.775625 L168.718829,4.829025 L167.008126,4.829025" id="Fill-20" sketch:type="MSShapeGroup"></path>
                <path d="M65.7992973,21.009475 L67.5836036,21.009475 C68.5667928,21.009475 69.4771532,21.082325 69.4771532,22.26575 C69.4771532,23.57705 68.3847207,23.650675 67.3465225,23.650675 L65.7992973,23.650675 L65.7992973,21.009475 L65.7992973,21.009475 Z M61.7937117,30.679925 L65.7992973,30.679925 L65.7992973,26.746025 L68.1662342,26.746025 C71.1522162,26.746025 73.2642523,25.2712 73.2642523,22.12005 C73.2642523,20.26315 72.0261622,17.676975 68.493964,17.676975 L61.7937117,17.676975 L61.7937117,30.679925 L61.7937117,30.679925 Z" id="Fill-21" sketch:type="MSShapeGroup"></path>
                <path d="M80.3286486,25.944675 C80.3286486,26.94675 80.1465766,28.294475 78.7806486,28.294475 C77.4154955,28.294475 77.2334234,26.94675 77.2334234,25.944675 C77.2334234,24.943375 77.4154955,23.613475 78.7806486,23.613475 C80.1465766,23.613475 80.3286486,24.943375 80.3286486,25.944675 L80.3286486,25.944675 Z M83.9336757,25.944675 C83.9336757,23.322075 82.3314414,20.990875 78.7806486,20.990875 C75.2306306,20.990875 73.6283964,23.322075 73.6283964,25.944675 C73.6283964,28.567275 75.2306306,30.917075 78.7806486,30.917075 C82.3314414,30.917075 83.9336757,28.567275 83.9336757,25.944675 L83.9336757,25.944675 Z" id="Fill-22" sketch:type="MSShapeGroup"></path>
                <path d="M85.2252252,21.228025 L88.6845946,21.228025 L88.6845946,22.739275 L88.721009,22.739275 C89.3036396,21.6101 90.0683423,20.990875 91.3792613,20.990875 C91.7434054,20.990875 92.088955,21.0459 92.4352793,21.136575 L92.4352793,24.32415 C92.0711351,24.196275 91.7434054,24.087775 91.0151171,24.087775 C89.594955,24.087775 88.8302523,24.92555 88.8302523,26.94675 L88.8302523,30.679925 L85.2252252,30.679925 L85.2252252,21.228025" id="Fill-23" sketch:type="MSShapeGroup"></path>
                <path d="M99.0619279,21.228025 L100.992667,21.228025 L100.992667,23.44995 L99.0619279,23.44995 L99.0619279,26.746025 C99.0619279,27.621 99.2625946,28.003075 100.172955,28.003075 C100.44645,28.003075 100.719171,27.984475 100.992667,27.94805 L100.992667,30.679925 C100.264378,30.679925 99.4446667,30.7892 98.679964,30.7892 C97.1505586,30.7892 95.4576757,30.552825 95.4576757,27.96665 L95.4576757,23.44995 L93.8554414,23.44995 L93.8554414,21.228025 L95.4576757,21.228025 L95.4576757,18.35045 L99.0619279,18.35045 L99.0619279,21.228025" id="Fill-24" sketch:type="MSShapeGroup"></path>
                <path d="M108.513405,23.9785 C108.494811,23.6685 108.331333,23.43135 108.094252,23.267825 C107.875766,23.0857 107.58445,22.99425 107.293135,22.99425 C106.783333,22.99425 106.200703,23.103525 106.200703,23.72275 C106.200703,23.996325 106.419964,24.123425 106.619856,24.214875 C107.220306,24.46985 108.586234,24.5427 109.78791,24.943375 C110.989586,25.32545 112.045604,26.036125 112.045604,27.5838 C112.045604,30.207175 109.533009,30.917075 107.238901,30.917075 C105.017622,30.917075 102.577856,30.024275 102.522847,27.5838 L105.964396,27.5838 C105.982991,27.9124 106.128649,28.1852 106.401369,28.421575 C106.583441,28.585875 106.928991,28.69515 107.365964,28.69515 C107.840126,28.69515 108.586234,28.513025 108.586234,27.96665 C108.586234,27.420275 108.276324,27.255975 106.601261,26.964575 C103.85236,26.491825 102.741333,25.61685 102.741333,23.996325 C102.741333,21.6101 105.308937,20.990875 107.202486,20.990875 C109.241694,20.990875 111.699279,21.55585 111.790703,23.9785 L108.513405,23.9785" id="Fill-25" sketch:type="MSShapeGroup"></path>
                <path d="M113.465766,21.228025 L116.942955,21.228025 L116.942955,22.4843 L116.979369,22.4843 C117.707658,21.39155 118.763676,20.990875 120.074595,20.990875 C121.094198,20.990875 122.186631,21.519425 122.623604,22.466475 C122.769261,22.3572 123.49755,20.990875 125.846667,20.990875 C128.267838,20.990875 129.086775,22.6672 129.086775,24.196275 L129.086775,30.679925 L125.482523,30.679925 L125.482523,25.5626 C125.482523,24.6698 125.391099,23.86845 124.298667,23.86845 C123.388306,23.86845 123.078396,24.579125 123.078396,25.5626 L123.078396,30.679925 L119.474144,30.679925 L119.474144,25.5626 C119.474144,24.6698 119.382721,23.86845 118.290288,23.86845 C117.379928,23.86845 117.070793,24.579125 117.070793,25.5626 L117.070793,30.679925 L113.465766,30.679925 L113.465766,21.228025" id="Fill-26" sketch:type="MSShapeGroup"></path>
                <path d="M137.042162,25.944675 C137.042162,26.94675 136.86009,28.294475 135.494937,28.294475 C134.129009,28.294475 133.946937,26.94675 133.946937,25.944675 C133.946937,24.943375 134.129009,23.613475 135.494937,23.613475 C136.86009,23.613475 137.042162,24.943375 137.042162,25.944675 L137.042162,25.944675 Z M140.647189,25.944675 C140.647189,23.322075 139.044955,20.990875 135.494937,20.990875 C131.944144,20.990875 130.34191,23.322075 130.34191,25.944675 C130.34191,28.567275 131.944144,30.917075 135.494937,30.917075 C139.044955,30.917075 140.647189,28.567275 140.647189,25.944675 L140.647189,25.944675 Z" id="Fill-27" sketch:type="MSShapeGroup"></path>
                <path d="M151.879874,30.679925 L148.402685,30.679925 L148.402685,29.478675 L148.36627,29.478675 C147.692216,30.42495 146.727622,30.917075 145.288865,30.917075 C143.595982,30.917075 142.047982,29.878575 142.047982,27.711675 L142.047982,21.228025 L145.653009,21.228025 L145.653009,26.181825 C145.653009,27.274575 145.780847,28.0395 146.836865,28.0395 C147.455135,28.0395 148.274847,27.7295 148.274847,26.21825 L148.274847,21.228025 L151.879874,21.228025 L151.879874,30.679925" id="Fill-28" sketch:type="MSShapeGroup"></path>
                <path d="M158.453838,21.228025 L160.383802,21.228025 L160.383802,23.44995 L158.453838,23.44995 L158.453838,26.746025 C158.453838,27.621 158.65373,28.003075 159.56409,28.003075 C159.837586,28.003075 160.110306,27.984475 160.383802,27.94805 L160.383802,30.679925 C159.654739,30.679925 158.836577,30.7892 158.071874,30.7892 C156.542468,30.7892 154.848811,30.552825 154.848811,27.96665 L154.848811,23.44995 L153.246577,23.44995 L153.246577,21.228025 L154.848811,21.228025 L154.848811,18.35045 L158.453838,18.35045 L158.453838,21.228025" id="Fill-29" sketch:type="MSShapeGroup"></path>
                <path d="M161.804739,17.676975 L165.409766,17.676975 L165.409766,22.247925 L165.44618,22.247925 C166.065225,21.519425 166.866342,20.990875 168.395748,20.990875 C170.088631,20.990875 171.636631,22.029375 171.636631,24.196275 L171.636631,30.679925 L168.031604,30.679925 L168.031604,25.726125 C168.031604,24.633375 167.904541,23.86845 166.848523,23.86845 C166.229477,23.86845 165.409766,24.17845 165.409766,25.6897 L165.409766,30.679925 L161.804739,30.679925 L161.804739,17.676975" id="Fill-30" sketch:type="MSShapeGroup"></path>
            </g>
        </g>
    </g>
</svg>